<?xml version="1.0" encoding="UTF-8"?>
<svg width="278px" height="67px" viewBox="0 0 278 67" version="1.1" xmlns="http://www.w3.org/2000/svg" xmlns:xlink="http://www.w3.org/1999/xlink">
    <!-- Generator: Sketch 55.2 (78181) - https://sketchapp.com -->
    <title>logo</title>
    <desc>Created with Sketch.</desc>
    <defs>
        <path d="M29.9348449,24.6661721 C29.7642752,29.0262335 28.4708071,32.3385149 26.0544021,34.6031157 C23.637997,36.8677166 20.1271552,38 15.5217714,38 C10.9163877,38 7.17812295,36.5999151 4.30686516,33.7997033 C1.43560736,30.9994914 0,27.3536327 0,22.8620178 L0,15.1379822 C0,10.6463673 1.3834896,7.00050856 4.15051031,4.20029674 C6.91753103,1.40008491 10.5799881,0 15.1379914,0 C19.6959947,0 23.2305263,1.15577479 25.7416924,3.46735905 C28.2528585,5.77894331 29.6695139,9.13350917 29.9917012,13.5311573 L29.9348449,13.7002967 L21.5201117,13.7002967 C21.4063985,11.2195722 20.8567931,9.41543591 19.8712788,8.28783383 C18.8857646,7.16023175 17.2653761,6.59643917 15.0100647,6.59643917 C13.0579884,6.59643917 11.5134076,7.3669557 10.3762758,8.90801187 C9.23914399,10.449068 8.67058662,12.506911 8.67058662,15.0816024 L8.67058662,22.8620178 C8.67058662,25.4555026 9.29126175,27.5274403 10.5326306,29.0778932 C11.7739995,30.628346 13.4417678,31.4035608 15.5359855,31.4035608 C17.6302033,31.4035608 19.1179284,30.8679579 19.9992055,29.7967359 C20.8804827,28.7255139 21.3779704,26.9589638 21.4916835,24.4970326 L29.8779886,24.4970326 L29.9348449,24.6661721 Z M57.0317883,36.8484848 L54.8947175,29.6756882 L43.1265808,29.6756882 L41.0180042,36.8484848 L32.2987552,36.8484848 L44.3518347,0 L53.6694635,0 L65.7510373,36.8484848 L57.0317883,36.8484848 Z M48.9377593,10.3636364 L44.9875519,23.030303 L53.0622407,23.030303 L49.0829876,10.3636364 L48.9377593,10.3636364 Z M99.2033195,0 L99.2033195,36.8484848 L90.5692809,36.8484848 L76.8915961,13.3610918 L76.7491202,13.4173491 L76.7491202,36.8484848 L68.0580913,36.8484848 L68.0580913,0 L76.7491202,0 L90.3983099,23.487393 L90.5692809,23.4311358 L90.5692809,0 L99.2033195,0 Z M118.375733,6.90909091 L114.19917,6.90909091 L114.19917,31.0909091 L118.375733,31.0909091 C120.667646,31.0909091 122.467054,30.3011308 123.774012,28.7215504 C125.08097,27.1419701 125.73444,25.031108 125.73444,22.3889009 L125.73444,15.5536601 C125.73444,12.911453 125.08097,10.810164 123.774012,9.24973008 C122.467054,7.68929616 120.667646,6.90909091 118.375733,6.90909091 Z M118.3966,36.8484848 L104.970954,36.8484848 L104.970954,0 L118.3966,0 C122.824531,0 126.500226,1.41579277 129.423796,4.24742077 C132.347366,7.07904878 133.809129,10.6982276 133.809129,15.1050659 L133.809129,21.7434189 C133.809129,26.1502572 132.347366,29.7694361 129.423796,32.6010641 C126.500226,35.4326921 122.824531,36.8484848 118.3966,36.8484848 Z M148.804979,0 L148.804979,36.8484848 L140.73029,36.8484848 L140.73029,0 L148.804979,0 Z M167.977393,6.90909091 L163.80083,6.90909091 L163.80083,31.0909091 L167.977393,31.0909091 C170.269305,31.0909091 172.068714,30.3011308 173.375672,28.7215504 C174.68263,27.1419701 175.3361,25.031108 175.3361,22.3889009 L175.3361,15.5536601 C175.3361,12.911453 174.68263,10.810164 173.375672,9.24973008 C172.068714,7.68929616 170.269305,6.90909091 167.977393,6.90909091 Z M169.151787,36.8484848 L155.726141,36.8484848 L155.726141,0 L169.151787,0 C173.579718,0 177.255413,1.41579277 180.178983,4.24742077 C183.102552,7.07904878 184.564315,10.6982276 184.564315,15.1050659 L184.564315,21.7434189 C184.564315,26.1502572 183.102552,29.7694361 180.178983,32.6010641 C177.255413,35.4326921 173.579718,36.8484848 169.151787,36.8484848 Z M210.450875,36.8484848 L208.313805,29.6756882 L196.545668,29.6756882 L194.437091,36.8484848 L185.717842,36.8484848 L197.770922,0 L207.088551,0 L219.170124,36.8484848 L210.450875,36.8484848 Z M202.356846,10.3636364 L198.406639,23.030303 L206.481328,23.030303 L202.502075,10.3636364 L202.356846,10.3636364 Z M248.008299,0 L248.008299,6.58209577 L238.371591,6.58209577 L238.371591,36.8484848 L229.876804,36.8484848 L229.876804,6.58209577 L220.323651,6.58209577 L220.323651,0 L248.008299,0 Z M275.412153,14.4862364 L275.412153,21.0683322 L261.109431,21.0683322 L261.109431,30.2663891 L277.944347,30.2663891 L277.944347,36.8484848 L252.622407,36.8484848 L252.622407,0 L278,0 L278,6.58209577 L261.109431,6.58209577 L261.109431,14.4862364 L275.412153,14.4862364 Z" id="path-1"></path>
        <path d="M103.467565,66.9824219 L103.467565,65.5234375 L111.026159,56.9628906 C112.420697,55.3808515 113.405063,54.0625053 113.979284,53.0078125 C114.553506,51.9531197 114.840612,50.939458 114.840612,49.9667969 C114.840612,48.5136646 114.43339,47.3593793 113.618933,46.5039062 C112.804475,45.6484332 111.664838,45.2207031 110.199987,45.2207031 C108.465604,45.2207031 107.141398,45.6982374 106.227331,46.6533203 C105.313264,47.6084032 104.856237,48.9179604 104.856237,50.5820312 L103.098425,50.5820312 L103.063269,50.4765625 C103.004674,48.5078027 103.628692,46.8730534 104.935339,45.5722656 C106.241986,44.2714779 107.941188,43.6210938 110.032995,43.6210938 C112.124802,43.6210938 113.762481,44.1865178 114.946081,45.3173828 C116.129681,46.4482478 116.721472,47.9804591 116.721472,49.9140625 C116.721472,51.1210938 116.355264,52.3574155 115.622839,53.6230469 C114.890413,54.8886782 113.750776,56.3945225 112.203894,58.140625 L105.85819,65.3300781 L105.893347,65.4003906 L117.758581,65.4003906 L117.776159,66.9824219 L103.467565,66.9824219 Z M134.272845,58.3867188 L134.272845,52.6386719 C134.272845,50.2480349 133.809959,48.4257875 132.884173,47.171875 C131.958387,45.9179625 130.613674,45.2910156 128.849994,45.2910156 C127.086313,45.2910156 125.747459,45.9179625 124.833392,47.171875 C123.919325,48.4257875 123.462298,50.2480349 123.462298,52.6386719 L123.462298,58.3867188 C123.462298,60.7539181 123.928114,62.5761655 124.859759,63.8535156 C125.791405,65.1308658 127.133188,65.7695312 128.88515,65.7695312 C130.637112,65.7695312 131.973036,65.1308658 132.892962,63.8535156 C133.812889,62.5761655 134.272845,60.7539181 134.272845,58.3867188 Z M136.171283,52.9550781 L136.171283,58.1054688 C136.171283,61.0703273 135.535547,63.3554607 134.264056,64.9609375 C132.992565,66.5664143 131.202544,67.3691406 128.893939,67.3691406 C126.585334,67.3691406 124.786524,66.5634846 123.497455,64.9521484 C122.208386,63.3408123 121.563861,61.0586085 121.563861,58.1054688 L121.563861,52.9550781 C121.563861,49.9902196 122.199597,47.7021565 123.471087,46.0908203 C124.742578,44.4794841 126.535529,43.6738281 128.849994,43.6738281 C131.164458,43.6738281 132.963268,44.4794841 134.246478,46.0908203 C135.529688,47.7021565 136.171283,49.9902196 136.171283,52.9550781 Z M140.679687,66.9824219 L140.679687,65.5234375 L148.238281,56.9628906 C149.632819,55.3808515 150.617185,54.0625053 151.191406,53.0078125 C151.765628,51.9531197 152.052734,50.939458 152.052734,49.9667969 C152.052734,48.5136646 151.645512,47.3593793 150.831055,46.5039062 C150.016597,45.6484332 148.87696,45.2207031 147.412109,45.2207031 C145.677726,45.2207031 144.35352,45.6982374 143.439453,46.6533203 C142.525386,47.6084032 142.068359,48.9179604 142.068359,50.5820312 L140.310547,50.5820312 L140.275391,50.4765625 C140.216797,48.5078027 140.840814,46.8730534 142.147461,45.5722656 C143.454108,44.2714779 145.15331,43.6210938 147.245117,43.6210938 C149.336925,43.6210938 150.974603,44.1865178 152.158203,45.3173828 C153.341803,46.4482478 153.933594,47.9804591 153.933594,49.9140625 C153.933594,51.1210938 153.567386,52.3574155 152.834961,53.6230469 C152.102535,54.8886782 150.962898,56.3945225 149.416016,58.140625 L143.070312,65.3300781 L143.105469,65.4003906 L154.970703,65.4003906 L154.988281,66.9824219 L140.679687,66.9824219 Z M171.484967,58.3867188 L171.484967,52.6386719 C171.484967,50.2480349 171.022081,48.4257875 170.096295,47.171875 C169.17051,45.9179625 167.825796,45.2910156 166.062116,45.2910156 C164.298435,45.2910156 162.959581,45.9179625 162.045514,47.171875 C161.131447,48.4257875 160.67442,50.2480349 160.67442,52.6386719 L160.67442,58.3867188 C160.67442,60.7539181 161.140236,62.5761655 162.071881,63.8535156 C163.003527,65.1308658 164.34531,65.7695312 166.097272,65.7695312 C167.849234,65.7695312 169.185158,65.1308658 170.105084,63.8535156 C171.025011,62.5761655 171.484967,60.7539181 171.484967,58.3867188 Z M173.383405,52.9550781 L173.383405,58.1054688 C173.383405,61.0703273 172.747669,63.3554607 171.476178,64.9609375 C170.204688,66.5664143 168.414666,67.3691406 166.106061,67.3691406 C163.797456,67.3691406 161.998646,66.5634846 160.709577,64.9521484 C159.420508,63.3408123 158.775983,61.0586085 158.775983,58.1054688 L158.775983,52.9550781 C158.775983,49.9902196 159.411719,47.7021565 160.683209,46.0908203 C161.9547,44.4794841 163.747651,43.6738281 166.062116,43.6738281 C168.37658,43.6738281 170.175391,44.4794841 171.4586,46.0908203 C172.74181,47.7021565 173.383405,49.9902196 173.383405,52.9550781 Z" id="path-2"></path>
    </defs>
    <g id="logo" stroke="none" stroke-width="1" fill="none" fill-rule="evenodd">
        <g id="CANDIDATE" fill-rule="nonzero">
            <use fill="#FFFFFF" xlink:href="#path-1"></use>
            <use fill="#20303C" xlink:href="#path-1"></use>
        </g>
        <g id="2020" fill-rule="nonzero">
            <use fill="#FFFFFF" xlink:href="#path-2"></use>
            <use fill="#20303C" xlink:href="#path-2"></use>
        </g>
        <rect id="Rectangle" fill="#6BA0C9" x="21" y="54" width="74" height="2"></rect>
        <rect id="Rectangle" fill="#6BA0C9" x="21" y="49" width="74" height="2"></rect>
        <rect id="Rectangle" fill="#6BA0C9" x="182" y="54" width="74" height="2"></rect>
        <rect id="Rectangle" fill="#6BA0C9" x="182" y="49" width="74" height="2"></rect>
    </g>
</svg>